<svg width="805pt" height="165pt" viewBox="0 0 807 167" xmlns="http://www.w3.org/2000/svg"><g id="fontsvg1741095681557" stroke-linecap="round" fill-rule="evenodd" fill="#000000"><path d="M 718.799 16.04 L 727.148 20.215 L 729.639 26.514 L 727.954 29.663 L 727.148 31.787 L 728.833 36.987 L 727.954 39.111 L 725.464 47.534 A 35.883 35.883 0 0 1 726.621 52.429 A 47.727 47.727 0 0 1 727.148 56.982 L 726.343 67.456 L 727.954 70.605 L 725.464 75.806 L 724.658 89.502 A 74.364 74.364 0 0 1 723.474 95.231 A 94.051 94.051 0 0 1 722.168 99.976 L 721.289 105.249 L 722.974 107.3 L 722.168 109.424 L 722.974 120.996 L 716.309 139.819 L 711.255 147.144 L 695.435 154.541 A 33.281 33.281 0 0 1 690.787 155.341 A 44.559 44.559 0 0 1 686.206 155.566 A 31.398 31.398 0 0 1 683.524 156.123 Q 681.683 156.427 679.541 156.592 L 677.856 154.541 A 34.474 34.474 0 0 1 670.122 152.067 A 39.354 39.354 0 0 1 668.701 151.392 A 12.807 12.807 0 0 1 665.21 149.941 A 17.383 17.383 0 0 1 662.842 148.242 L 650.317 135.645 L 648.633 124.146 L 646.143 115.723 L 645.337 102.1 L 647.021 90.527 L 646.143 81.079 L 647.021 77.93 L 647.827 69.58 L 647.021 67.456 A 9.961 9.961 0 0 1 650.317 61.157 L 648.633 53.833 A 51.098 51.098 0 0 1 648.055 49.217 Q 647.827 46.438 647.827 43.286 A 11.79 11.79 0 0 0 649.759 39.916 A 14.897 14.897 0 0 0 650.317 38.086 L 648.633 35.962 L 647.827 27.539 L 648.633 25.488 Q 651.123 21.826 655.371 19.189 L 661.157 17.065 L 663.721 18.091 A 31.238 31.238 0 0 1 671.478 19.462 A 36.645 36.645 0 0 1 673.682 20.215 L 674.561 22.339 L 673.682 27.539 L 674.561 29.663 L 673.682 29.663 L 672.876 32.812 L 673.682 41.235 A 43.523 43.523 0 0 1 671.97 46.906 A 54.629 54.629 0 0 1 670.386 50.684 L 672.07 56.982 L 669.507 59.033 L 672.07 70.605 A 37.297 37.297 0 0 1 671.325 76.316 A 46.822 46.822 0 0 1 670.386 80.054 L 670.386 93.677 A 29.133 29.133 0 0 1 669.831 98.755 A 38.815 38.815 0 0 1 668.701 103.125 L 673.682 125.171 L 681.226 129.346 L 686.206 127.295 L 687.891 129.346 L 696.24 125.171 L 703.784 129.346 L 704.59 123.047 L 702.1 120.996 A 20.688 20.688 0 0 1 700.43 113.423 A 23.996 23.996 0 0 1 700.415 112.573 L 703.784 82.104 L 707.08 83.203 L 710.449 83.203 L 707.08 78.955 A 4.737 4.737 0 0 1 703.215 76.866 Q 702.659 76.11 702.222 75.08 A 12.009 12.009 0 0 1 702.1 74.78 L 703.784 67.456 L 702.905 64.307 L 701.294 61.157 L 703.784 55.884 L 704.59 49.585 L 702.905 38.086 L 703.784 35.962 L 704.59 32.812 L 703.784 22.339 L 711.255 18.091 L 715.43 19.189 L 717.114 18.091 A 1.368 1.368 0 0 0 717.668 17.786 Q 718.078 17.435 718.471 16.714 A 8.918 8.918 0 0 0 718.799 16.04 Z M 516.357 7.397 L 534.961 6.665 Q 536.954 8.373 538.902 11.232 A 39.176 39.176 0 0 1 540.015 12.964 L 542.505 24.609 L 543.384 35.229 L 550.122 40.503 L 555.176 47.9 Q 557.593 46.143 557.666 42.627 A 3.805 3.805 0 0 1 556.119 41.703 Q 555.608 41.214 555.176 40.503 L 557.666 36.255 L 563.599 29.956 A 67.907 67.907 0 0 1 564.629 20.48 A 78.352 78.352 0 0 1 565.283 17.212 L 569.458 8.789 L 575.757 8.569 Q 579.661 7.636 582.41 8.448 A 7.32 7.32 0 0 1 585.791 10.547 L 590.845 17.944 L 586.304 32.007 L 581.25 39.404 L 577.075 48.926 L 565.503 73.315 L 572.827 87.012 L 577.881 100.781 A 1.8 1.8 0 0 0 577.409 101.109 Q 576.821 101.656 576.196 102.905 Q 578.906 106.421 581.25 111.328 L 586.304 118.799 L 590.552 127.222 Q 592.383 130.811 593.042 135.645 A 40.875 40.875 0 0 1 589.215 139.58 A 51.301 51.301 0 0 1 586.304 142.017 Q 583.008 144.8 578.76 146.265 A 12.77 12.77 0 0 1 574.272 149.606 A 16.638 16.638 0 0 1 572.021 150.439 L 567.773 140.918 A 12.152 12.152 0 0 0 564.404 133.594 L 560.229 125.098 Q 559.277 120.044 556.86 115.576 L 555.981 106.055 L 550.122 99.756 L 545.874 97.632 L 545.874 102.905 L 541.699 112.427 L 539.136 122.974 L 530.713 140.918 A 34.799 34.799 0 0 1 525.659 148.315 L 504.053 142.09 L 512.402 124.658 Q 521.704 102.173 523.975 97.632 L 529.907 91.26 L 529.028 83.862 L 531.592 81.738 L 535.474 75.146 A 18.958 18.958 0 0 0 534.078 68.436 A 21.855 21.855 0 0 0 533.789 67.749 L 529.907 58.447 L 523.169 38.379 L 518.921 29.956 A 10.537 10.537 0 0 1 517.697 28.254 Q 515.906 25.272 513.577 18.822 A 172.612 172.612 0 0 1 512.183 14.795 L 516.357 7.397 Z M 26.587 13.77 L 39.185 3.296 L 48.413 5.347 L 50.977 3.296 L 73.608 7.471 L 80.347 10.62 L 87.085 15.82 L 90.454 21.094 L 87.891 32.666 A 35.829 35.829 0 0 0 85.354 38.891 A 43.375 43.375 0 0 0 84.521 42.041 Q 82.104 44.751 78.662 46.289 A 69.16 69.16 0 0 0 72.949 40.997 A 93.684 93.684 0 0 0 66.064 35.815 Q 63.135 32.446 59.326 30.542 L 53.467 31.567 L 51.782 29.517 A 10.9 10.9 0 0 0 46.855 30.57 Q 42.524 32.732 41.16 39.329 A 26.434 26.434 0 0 0 40.869 41.016 A 32.14 32.14 0 0 1 42.786 44.286 Q 43.676 46.018 44.501 48.05 A 58.832 58.832 0 0 1 45.044 49.438 L 51.782 54.639 A 58.316 58.316 0 0 1 59.198 57.642 Q 62.87 59.415 66.696 61.808 A 92.544 92.544 0 0 1 66.943 61.963 L 72.803 68.262 A 18.583 18.583 0 0 1 75.366 70.136 Q 76.576 71.18 77.787 72.524 A 34.83 34.83 0 0 1 78.662 73.535 A 80.155 80.155 0 0 1 82.269 79.807 Q 84.714 84.507 87.085 90.308 L 87.891 102.905 L 85.4 112.354 A 120.635 120.635 0 0 1 81.647 119.934 A 162.57 162.57 0 0 1 76.978 128.027 L 70.239 134.326 L 64.38 136.377 L 62.695 135.425 L 49.292 138.501 L 44.238 140.625 L 42.554 137.476 L 33.325 135.425 L 18.164 128.027 A 19.173 19.173 0 0 1 14.034 124.216 A 24.169 24.169 0 0 1 12.305 121.802 L 11.499 111.255 L 15.674 92.432 A 15.642 15.642 0 0 1 19.494 93.306 Q 21.723 94.102 24.097 95.581 L 31.641 99.756 A 35.067 35.067 0 0 0 41.087 106.177 A 43.88 43.88 0 0 0 45.923 108.105 L 54.346 109.204 L 61.011 104.956 Q 65.676 101.019 67.73 91.423 A 51.692 51.692 0 0 0 67.749 91.333 Q 69.952 88.815 72.101 85.216 A 61.635 61.635 0 0 0 72.803 84.009 L 67.749 82.983 L 66.064 85.034 L 65.259 91.333 A 28.17 28.17 0 0 1 60.716 87.984 Q 58.781 86.253 56.897 84.034 A 49.66 49.66 0 0 1 56.03 82.983 L 40.063 75.659 Q 35.217 72.26 29.992 66.914 A 108.209 108.209 0 0 1 28.271 65.112 Q 25.269 62.695 22.412 58.887 A 19.097 19.097 0 0 1 20.534 55.63 Q 19.796 54.021 19.225 52.12 A 33.189 33.189 0 0 1 19.043 51.489 L 16.553 38.892 L 21.533 21.094 Q 24.023 18.091 26.587 13.77 Z M 227.93 13.11 L 242.798 17.139 A 26.326 26.326 0 0 1 248.545 19.539 Q 251.008 20.908 253.507 22.869 A 48.271 48.271 0 0 1 255.176 24.243 Q 258.869 30.777 260.841 39.86 A 78.535 78.535 0 0 1 260.962 40.43 L 261.768 54.565 A 1.33 1.33 0 0 0 261.283 54.831 Q 260.701 55.307 260.083 56.543 L 259.277 59.619 L 257.593 77.783 L 247.705 88.916 A 18.954 18.954 0 0 1 243.638 91.091 A 23.859 23.859 0 0 1 241.113 91.919 L 237.012 83.862 L 232.031 90.967 L 234.521 92.944 A 32.564 32.564 0 0 0 239.502 109.131 L 249.39 120.264 Q 252.832 126.855 258.472 133.374 L 251.88 146.484 A 35.556 35.556 0 0 1 243.729 148.917 A 46.007 46.007 0 0 1 237.817 149.561 Q 234.375 142.822 228.735 137.402 A 70.12 70.12 0 0 0 226.094 131.076 Q 224.597 127.911 222.67 124.524 A 120.986 120.986 0 0 0 221.338 122.241 A 52.029 52.029 0 0 1 217.37 114.549 A 69.921 69.921 0 0 1 214.746 107.08 Q 210.498 102.246 205.664 94.995 L 202.368 91.919 L 200.684 96.973 L 204.858 97.998 L 198.193 113.159 Q 198.413 122.168 199.878 133.374 L 198.193 146.484 L 191.602 147.51 Q 184.79 146.924 176.807 143.481 L 173.511 138.428 L 176.807 128.32 L 176.807 118.213 L 178.418 107.08 A 74.942 74.942 0 0 1 179.224 99.39 Q 179.836 95.424 180.875 91.104 A 119.181 119.181 0 0 1 180.908 90.967 A 3.946 3.946 0 0 1 178.948 89.669 A 5.535 5.535 0 0 1 178.418 88.916 L 181.714 71.704 L 180.103 68.701 L 183.398 55.591 L 181.714 40.43 L 182.52 37.354 Q 183.179 30.688 185.01 22.192 A 29.328 29.328 0 0 1 199.358 17.179 A 34.725 34.725 0 0 1 199.878 17.139 L 212.256 15.161 L 214.746 16.113 L 226.245 15.161 Q 226.961 14.923 227.628 13.713 A 9.112 9.112 0 0 0 227.93 13.11 Z M 145.166 35.083 L 147.729 26.953 Q 154.614 28.125 162.451 32.007 Q 168.193 34.598 173.199 40.603 A 45.273 45.273 0 0 1 173.657 41.162 L 172.778 55.371 A 24.01 24.01 0 0 1 164.136 67.529 Q 158.862 63.062 151.172 60.425 L 146.851 57.422 A 38.382 38.382 0 0 0 140.583 58.476 A 46.594 46.594 0 0 0 137.402 59.399 A 27.909 27.909 0 0 0 135.568 53.105 A 32.655 32.655 0 0 0 134.766 51.343 L 133.96 56.396 A 23.797 23.797 0 0 1 125.997 65.497 A 29.029 29.029 0 0 1 124.438 66.504 A 49.176 49.176 0 0 1 120.987 74.905 A 62.837 62.837 0 0 1 117.554 80.713 Q 116.162 88.184 113.232 96.973 L 118.359 113.232 A 31.667 31.667 0 0 0 122.395 122.409 A 40.049 40.049 0 0 0 125.317 126.416 A 42.039 42.039 0 0 0 127.625 129.401 Q 128.906 130.92 130.444 132.495 L 137.402 131.47 L 145.166 132.495 L 165.015 126.416 L 165.894 129.492 A 64.522 64.522 0 0 1 167.821 139.16 A 87.114 87.114 0 0 1 168.457 148.755 A 31.42 31.42 0 0 1 160.756 155.796 A 38.764 38.764 0 0 1 157.251 157.837 Q 151.206 159.919 143.191 160.769 A 93.523 93.523 0 0 1 141.724 160.913 L 132.202 159.888 A 10.072 10.072 0 0 1 127.881 162.964 L 120.996 157.837 L 107.153 151.758 L 94.189 125.391 L 91.626 109.204 L 94.189 99.023 L 92.505 91.919 L 94.189 76.685 A 41.019 41.019 0 0 1 96.598 68.737 Q 98.071 65.158 100.269 61.45 A 69.465 69.465 0 0 1 103.113 51.073 A 81.475 81.475 0 0 1 104.59 47.241 L 113.232 35.083 L 141.724 29.004 L 140.845 33.032 L 145.166 35.083 Z M 374.121 15.747 L 385.986 11.865 L 394.482 11.865 L 398.73 16.772 A 98.957 98.957 0 0 1 398.264 22.727 Q 397.937 25.78 397.416 29.185 A 179.058 179.058 0 0 1 397.046 31.494 L 396.167 47.314 L 395.288 53.174 L 396.167 55.151 L 396.167 58.154 L 397.046 60.059 L 396.167 61.084 L 394.482 73.901 A 76.35 76.35 0 0 1 394.16 80.703 Q 393.745 85.327 392.798 90.601 L 391.113 101.44 L 392.798 105.396 L 391.113 119.165 L 400.415 116.968 L 412.28 115.942 L 422.461 117.92 L 424.951 115.942 L 434.326 114.038 L 436.89 115.942 A 1012.595 1012.595 0 0 0 437.869 118.936 Q 439.073 122.595 439.973 125.219 A 293.155 293.155 0 0 0 440.259 126.05 L 436.89 136.89 A 34.869 34.869 0 0 1 429.232 139.158 A 45.818 45.818 0 0 1 423.267 139.819 L 420.776 141.797 L 413.965 138.867 A 39.469 39.469 0 0 1 405.058 141.305 A 48.621 48.621 0 0 1 400.415 141.797 L 391.919 141.797 A 34.492 34.492 0 0 1 390.743 139.073 Q 390.197 137.652 389.689 136.022 A 61.959 61.959 0 0 1 389.355 134.912 A 29.722 29.722 0 0 0 391.104 129.716 A 39.492 39.492 0 0 0 391.919 125.098 Q 387.012 125.244 385.986 131.982 L 384.302 134.912 L 386.865 141.797 L 383.423 141.797 L 369.873 143.774 A 109.365 109.365 0 0 1 367.643 135.498 A 135.035 135.035 0 0 1 366.504 130.005 L 369.067 120.19 L 367.31 117.187 A 81.927 81.927 0 0 0 368.77 107.271 A 96.605 96.605 0 0 0 369.067 102.466 L 371.558 86.646 L 369.873 77.783 L 373.242 73.901 A 62.778 62.778 0 0 1 371.249 64.634 A 75.428 75.428 0 0 1 370.752 60.059 L 373.242 48.267 L 372.437 45.337 L 375 40.356 Q 373.242 37.573 372.437 33.472 L 372.437 18.75 Q 372.729 16.919 374.121 15.747 Z M 448.755 15.747 L 460.62 11.865 L 469.116 11.865 L 473.364 16.772 A 98.957 98.957 0 0 1 472.898 22.727 Q 472.571 25.78 472.049 29.185 A 179.058 179.058 0 0 1 471.68 31.494 L 470.801 47.314 L 469.922 53.174 L 470.801 55.151 L 470.801 58.154 L 471.68 60.059 L 470.801 61.084 L 469.116 73.901 A 76.35 76.35 0 0 1 468.794 80.703 Q 468.379 85.327 467.432 90.601 L 465.747 101.44 L 467.432 105.396 L 465.747 119.165 L 475.049 116.968 L 486.914 115.942 L 497.095 117.92 L 499.585 115.942 L 508.96 114.038 L 511.523 115.942 A 1012.595 1012.595 0 0 0 512.503 118.936 Q 513.707 122.595 514.606 125.219 A 293.155 293.155 0 0 0 514.893 126.05 L 511.523 136.89 A 34.869 34.869 0 0 1 503.866 139.158 A 45.818 45.818 0 0 1 497.9 139.819 L 495.41 141.797 L 488.599 138.867 A 39.469 39.469 0 0 1 479.692 141.305 A 48.621 48.621 0 0 1 475.049 141.797 L 466.553 141.797 A 34.492 34.492 0 0 1 465.377 139.073 Q 464.831 137.652 464.323 136.022 A 61.959 61.959 0 0 1 463.989 134.912 A 29.722 29.722 0 0 0 465.738 129.716 A 39.492 39.492 0 0 0 466.553 125.098 Q 461.646 125.244 460.62 131.982 L 458.936 134.912 L 461.499 141.797 L 458.057 141.797 L 444.507 143.774 A 109.365 109.365 0 0 1 442.276 135.498 A 135.035 135.035 0 0 1 441.138 130.005 L 443.701 120.19 L 441.943 117.187 A 81.927 81.927 0 0 0 443.404 107.271 A 96.605 96.605 0 0 0 443.701 102.466 L 446.191 86.646 L 444.507 77.783 L 447.876 73.901 A 62.778 62.778 0 0 1 445.883 64.634 A 75.428 75.428 0 0 1 445.386 60.059 L 447.876 48.267 L 447.07 45.337 L 449.634 40.356 Q 447.876 37.573 447.07 33.472 L 447.07 18.75 Q 447.363 16.919 448.755 15.747 Z M 328.345 20.288 L 330.762 19.263 L 337.866 20.288 L 350.684 37.207 L 354.639 49.805 A 44.804 44.804 0 0 1 357.515 55.377 A 58.11 58.11 0 0 1 359.399 60.352 L 361.011 63.574 L 359.399 73.022 L 360.205 86.792 Q 359.326 93.677 357.056 100.488 L 355.444 113.159 L 345.85 134.253 L 331.494 150 L 313.989 156.372 L 311.572 154.248 L 300.439 152.124 L 290.845 147.949 L 278.906 130.005 L 271.729 107.886 L 270.923 99.39 L 272.534 96.24 L 270.923 86.792 L 273.34 84.668 L 272.534 75.146 L 276.489 59.326 A 18.121 18.121 0 0 1 283.585 52.398 A 22.178 22.178 0 0 1 284.473 51.929 L 282.129 48.779 L 284.473 42.48 L 290.039 31.86 A 27.843 27.843 0 0 0 293.962 28.444 A 37.83 37.83 0 0 0 297.217 24.536 Q 301.392 22.632 306.006 19.263 A 34.062 34.062 0 0 0 311.371 18.658 Q 313.997 18.161 316.833 17.26 A 55.892 55.892 0 0 0 317.212 17.139 A 34.075 34.075 0 0 1 323.324 18.422 A 45.346 45.346 0 0 1 328.345 20.288 Z M 767.065 16.04 L 774.902 12.012 L 782.813 16.04 L 788.086 12.964 L 790.723 15.015 L 791.602 38.159 L 788.086 48.193 L 783.691 55.298 A 5.843 5.843 0 0 1 787.576 59.023 A 9.568 9.568 0 0 1 788.086 61.304 A 32.845 32.845 0 0 1 787.161 67.485 A 39.323 39.323 0 0 1 786.328 70.386 A 32.274 32.274 0 0 0 787.19 77.206 A 39.221 39.221 0 0 0 788.086 80.42 L 788.086 88.477 L 784.57 89.502 L 786.328 98.511 L 785.449 107.593 L 782.813 116.675 L 783.691 124.731 L 782.813 127.734 L 783.691 139.746 L 777.539 145.825 L 770.581 146.851 L 767.944 144.8 L 757.397 143.774 L 754.761 138.794 L 756.519 135.718 L 759.155 126.709 L 760.034 102.539 L 760.034 92.505 L 759.155 92.505 L 760.034 91.479 L 765.308 90.527 L 763.55 86.499 A 76.793 76.793 0 0 1 762.58 81.217 Q 762.163 78.431 761.872 75.312 A 127.827 127.827 0 0 1 761.792 74.414 L 763.55 63.354 L 767.065 56.25 A 26.076 26.076 0 0 1 764.461 50.619 A 32.441 32.441 0 0 1 763.55 47.241 L 765.308 36.108 L 766.187 33.105 Q 765.527 29.663 765.308 25.049 A 28.124 28.124 0 0 1 767.065 16.04 Z M 329.956 56.177 L 325.928 44.531 A 37.929 37.929 0 0 1 314.795 53.027 L 302.051 56.177 Q 299.854 62.988 296.484 69.873 L 292.456 79.395 L 294.873 83.569 A 29.194 29.194 0 0 1 290.622 92.124 A 26.501 26.501 0 0 1 286.89 96.24 L 280.518 100.488 L 287.695 102.612 L 290.039 99.39 A 70.728 70.728 0 0 1 294.691 108.541 A 84.552 84.552 0 0 1 296.484 113.159 Q 300.883 115.61 304.742 120.809 A 43.532 43.532 0 0 1 306.006 122.607 L 312.378 125.83 L 319.556 124.731 A 59.542 59.542 0 0 1 328.67 119.635 A 68.802 68.802 0 0 1 331.494 118.433 A 69.834 69.834 0 0 1 332.505 112.483 A 93.412 93.412 0 0 1 333.911 106.787 A 76.856 76.856 0 0 0 335.894 100.03 Q 337.042 95.38 337.866 89.941 L 337.866 77.271 L 337.134 68.848 A 79.5 79.5 0 0 0 333.984 62.714 Q 332.246 59.645 330.095 56.387 A 127.478 127.478 0 0 0 329.956 56.177 Z M 232.031 34.351 L 229.541 32.3 A 27.5 27.5 0 0 1 224.012 38.09 A 25.306 25.306 0 0 1 222.144 39.404 L 209.766 39.404 A 20.209 20.209 0 0 0 205.675 46.404 A 22.957 22.957 0 0 0 205.664 46.436 L 204.858 54.565 L 206.47 56.543 L 201.489 65.698 L 203.174 70.752 L 200.684 69.727 L 199.072 71.704 A 21.59 21.59 0 0 0 201.896 75.683 A 27.218 27.218 0 0 0 203.979 77.783 A 8.628 8.628 0 0 1 209.766 80.859 L 213.062 83.862 L 212.256 78.809 L 221.338 76.758 L 231.226 72.729 L 237.012 65.698 L 240.308 54.565 A 33.223 33.223 0 0 0 236.206 45.483 A 41.954 41.954 0 0 0 231.812 41.598 A 51.876 51.876 0 0 0 228.735 39.404 L 232.031 34.351 Z M 751.245 94.922 L 748.608 94.922 A 35.65 35.65 0 0 0 746.597 102.331 Q 746.043 105.7 745.978 109.501 A 58.889 58.889 0 0 0 745.972 110.01 L 747.729 120.117 A 55.6 55.6 0 0 0 749.744 113.983 A 75.055 75.055 0 0 0 751.245 107.007 L 750.366 99.976 A 1.749 1.749 0 0 0 751.364 99.385 Q 751.605 99.113 751.804 98.722 A 5.42 5.42 0 0 0 752.124 97.926 L 751.245 94.922 Z M 695.947 66.431 L 698.364 80.933 L 695.947 87.598 L 698.95 90.967 L 700.781 87.598 L 699.609 77.563 L 698.95 75.366 L 699.609 67.529 L 695.947 66.431 Z M 556.348 131.763 L 551.294 126.489 A 79.61 79.61 0 0 1 548.794 133.454 A 101.971 101.971 0 0 1 546.24 139.16 A 32.319 32.319 0 0 1 551.749 142.288 Q 554.245 144.027 556.753 146.357 A 57.906 57.906 0 0 1 558.032 147.583 A 15.484 15.484 0 0 0 552.979 138.062 Q 554.077 134.619 556.348 131.763 Z M 516.357 67.163 L 512.183 65.039 A 115.27 115.27 0 0 1 507.349 75.339 A 130.984 130.984 0 0 1 505.444 78.809 A 35.565 35.565 0 0 0 509.512 81.013 Q 511.582 81.975 513.981 82.818 A 59.758 59.758 0 0 0 514.673 83.057 A 12.308 12.308 0 0 0 517.694 81.445 Q 518.899 80.582 520.068 79.381 A 22.432 22.432 0 0 0 520.605 78.809 L 514.673 76.685 L 516.357 67.163 Z M 362.622 157.983 L 365.112 157.983 L 365.991 155.054 A 5.448 5.448 0 0 0 365.677 154.292 Q 365.139 153.243 364.307 153.076 L 365.112 146.191 Q 363.979 139.181 361.888 133.814 A 44.083 44.083 0 0 0 361.743 133.447 L 360.059 143.262 A 46.802 46.802 0 0 0 360.585 150.459 Q 361.2 154.411 362.535 157.767 A 29.239 29.239 0 0 0 362.622 157.983 Z M 437.256 157.983 L 439.746 157.983 L 440.625 155.054 A 5.448 5.448 0 0 0 440.311 154.292 Q 439.773 153.243 438.94 153.076 L 439.746 146.191 Q 438.613 139.181 436.522 133.814 A 44.083 44.083 0 0 0 436.377 133.447 L 434.692 143.262 A 46.802 46.802 0 0 0 435.219 150.459 Q 435.834 154.411 437.169 157.767 A 29.239 29.239 0 0 0 437.256 157.983 Z M 398.364 101.294 L 398.364 104.297 L 400.854 105.249 A 3.778 3.778 0 0 0 401.61 104.826 Q 402.434 104.219 402.539 103.271 L 408.472 104.297 Q 414.771 102.832 419.531 100.342 L 411.035 98.364 A 30.784 30.784 0 0 0 404.804 98.966 A 22.989 22.989 0 0 0 398.364 101.294 Z M 472.998 101.294 L 472.998 104.297 L 475.488 105.249 A 3.778 3.778 0 0 0 476.243 104.826 Q 477.068 104.219 477.173 103.271 L 483.105 104.297 Q 489.404 102.832 494.165 100.342 L 485.669 98.364 A 30.784 30.784 0 0 0 479.437 98.966 A 22.989 22.989 0 0 0 472.998 101.294 Z M 516.357 57.129 L 517.163 58.154 L 520.532 57.129 L 518.848 50.757 A 37.484 37.484 0 0 1 513.794 40.21 Q 510.425 43.945 508.74 48.633 A 28.67 28.67 0 0 1 513.088 52.492 A 22.131 22.131 0 0 1 516.357 57.129 Z M 604.761 125.83 L 601.392 119.458 L 599.707 134.399 L 603.076 138.647 L 604.761 125.83 Z M 593.848 6.885 L 592.969 14.282 L 592.163 16.406 A 45.583 45.583 0 0 0 593.728 20.888 Q 594.642 23.105 595.721 24.934 A 25.328 25.328 0 0 0 596.338 25.928 A 4.22 4.22 0 0 0 597.149 25.359 Q 597.726 24.834 597.938 24.158 A 2.619 2.619 0 0 0 598.022 23.804 L 596.338 14.282 A 12.986 12.986 0 0 0 594.069 7.209 A 15.749 15.749 0 0 0 593.848 6.885 Z M 569.312 115.942 A 178.344 178.344 0 0 0 576.466 128.741 A 205.989 205.989 0 0 0 579.199 133.081 Q 577.588 120.19 569.312 115.942 Z M 788.159 122.607 L 789.038 130.591 L 788.159 133.667 L 789.917 136.597 A 10.141 10.141 0 0 0 792.715 135.087 A 13.492 13.492 0 0 0 794.312 133.667 L 792.554 126.562 Q 794.261 126.562 795.733 124.973 A 8.124 8.124 0 0 0 796.069 124.585 A 24.207 24.207 0 0 1 790.414 123.445 A 29.174 29.174 0 0 1 788.159 122.607 Z M 585.132 56.616 L 578.394 62.988 L 583.447 73.682 A 138.909 138.909 0 0 0 584.889 61.034 A 157.386 157.386 0 0 0 585.132 56.616 Z M 440.039 49.878 L 445.972 51.782 A 13.8 13.8 0 0 0 448.192 47.931 A 12.907 12.907 0 0 0 448.535 46.875 L 445.972 44.897 L 443.408 45.923 L 436.67 44.897 A 40.868 40.868 0 0 1 438.103 51.312 A 35.775 35.775 0 0 1 438.354 53.76 A 6.576 6.576 0 0 0 439.445 52.271 A 5.08 5.08 0 0 0 440.039 49.878 Z M 514.673 49.878 L 520.605 51.782 A 13.8 13.8 0 0 0 522.826 47.931 A 12.907 12.907 0 0 0 523.169 46.875 L 520.605 44.897 L 518.042 45.923 L 511.304 44.897 A 40.868 40.868 0 0 1 512.737 51.312 A 35.775 35.775 0 0 1 512.988 53.76 A 6.576 6.576 0 0 0 514.079 52.271 A 5.08 5.08 0 0 0 514.673 49.878 Z M 127.075 91.04 L 124.878 94.995 L 132.495 102.979 L 136.67 102.832 L 136.011 100.269 L 127.075 91.04 Z M 322.339 60.718 A 23.266 23.266 0 0 0 318.696 63.791 Q 317.157 65.368 315.699 67.362 A 40.521 40.521 0 0 0 315.161 68.115 A 10.267 10.267 0 0 0 319.681 66.473 A 14.017 14.017 0 0 0 321.606 64.966 A 10.469 10.469 0 0 0 325.972 67.631 A 13.912 13.912 0 0 0 327.979 68.115 A 20.088 20.088 0 0 0 322.339 60.718 Z M 316.406 33.984 A 23.266 23.266 0 0 0 312.764 37.058 Q 311.224 38.635 309.766 40.629 A 40.521 40.521 0 0 0 309.229 41.382 A 10.007 10.007 0 0 0 313.395 39.921 A 13.969 13.969 0 0 0 315.601 38.232 A 10.096 10.096 0 0 0 320.316 41.031 A 13.309 13.309 0 0 0 321.973 41.382 A 20.438 20.438 0 0 0 316.406 33.984 Z M 296.118 76.392 Q 299.121 80.054 303.516 81.958 A 12.974 12.974 0 0 0 302.554 78.715 A 10.176 10.176 0 0 0 300.366 75.586 A 13.684 13.684 0 0 0 302.229 73.086 A 9.903 9.903 0 0 0 303.516 69.214 A 35.245 35.245 0 0 0 299.841 72.135 Q 297.6 74.19 296.118 76.392 Z M 768.53 128.027 L 760.62 121.948 L 761.499 130.005 L 770.288 134.033 A 16.799 16.799 0 0 0 769.432 130.219 A 21.167 21.167 0 0 0 768.53 128.027 Z M 768.97 98.511 L 761.06 92.505 L 761.938 100.562 L 770.728 104.517 A 16.657 16.657 0 0 0 770.027 101.21 A 22.321 22.321 0 0 0 768.97 98.511 Z M 218.042 96.021 L 215.552 80.859 L 213.062 84.888 L 214.746 94.995 L 218.042 96.021 Z M 224.854 108.984 L 227.344 124.146 L 229.834 120.117 L 228.149 110.01 L 224.854 108.984 Z M 174.976 93.75 L 172.485 78.589 L 169.995 82.617 L 171.68 92.725 L 174.976 93.75 Z M 167.432 100.488 L 169.922 115.649 L 172.339 111.621 L 170.728 101.514 L 167.432 100.488 Z M 406.567 72.217 L 411.621 81.079 Q 414.258 82.764 416.748 83.057 L 413.306 73.242 L 406.567 72.217 Z M 422.754 91.04 L 427.808 99.902 Q 430.444 101.587 432.935 101.88 L 429.492 92.065 L 422.754 91.04 Z M 481.201 72.217 L 486.255 81.079 Q 488.892 82.764 491.382 83.057 L 487.939 73.242 L 481.201 72.217 Z M 497.388 91.04 L 502.441 99.902 Q 505.078 101.587 507.568 101.88 L 504.126 92.065 L 497.388 91.04 Z M 173.95 123.779 L 170.435 131.982 L 179.224 136.084 A 18.741 18.741 0 0 0 173.955 123.785 A 22.12 22.12 0 0 0 173.95 123.779 Z M 718.799 44.385 L 714.624 42.261 A 87.562 87.562 0 0 0 712.445 48.157 Q 711.418 51.257 710.479 54.747 A 141.006 141.006 0 0 0 710.449 54.858 L 712.939 52.734 L 718.799 44.385 Z M 682.91 39.404 L 678.735 37.354 A 83.146 83.146 0 0 0 676.589 43.097 Q 675.594 46.072 674.682 49.429 A 135.634 135.634 0 0 0 674.561 49.878 L 677.051 47.827 L 682.91 39.404 Z M 156.299 120.044 L 152.856 115.503 L 146.411 120.996 L 146.777 126.05 L 148.975 126.562 L 156.299 120.044 Z M 175.269 51.782 L 176.147 58.887 A 14.593 14.593 0 0 0 174.677 63.45 A 18.744 18.744 0 0 0 174.463 65.991 Q 177.083 63.578 178.6 59.412 A 24.674 24.674 0 0 0 178.784 58.887 A 10.485 10.485 0 0 0 175.269 51.782 Z M 141.724 139.6 L 142.529 146.704 A 13.769 13.769 0 0 0 141.158 150.657 A 18.557 18.557 0 0 0 140.845 153.809 Q 143.465 151.395 144.981 147.229 A 24.674 24.674 0 0 0 145.166 146.704 A 10.612 10.612 0 0 0 141.724 139.6 Z M 643.872 63.647 L 631.421 66.797 L 634.717 69.946 L 643.066 67.822 L 643.872 63.647 Z M 340.283 53.027 L 334.717 57.202 A 9.638 9.638 0 0 1 337.86 58.16 Q 339.06 58.75 340.272 59.684 A 18.926 18.926 0 0 1 341.089 60.352 L 344.312 62.476 L 343.506 59.326 L 344.312 57.202 A 9.251 9.251 0 0 0 340.283 53.027 Z M 364.014 30.542 L 366.138 29.736 L 369.287 30.542 L 367.163 27.393 A 16.6 16.6 0 0 1 365.475 25.086 Q 364.248 23.038 364.014 21.021 L 359.766 26.587 A 9.772 9.772 0 0 0 364.014 30.542 Z M 360.571 128.101 L 355.005 132.349 Q 358.154 132.642 361.377 135.498 L 364.526 137.549 L 363.721 134.399 L 364.526 132.349 A 9.237 9.237 0 0 0 360.571 128.101 Z M 315.894 108.325 L 310.327 112.5 A 9.638 9.638 0 0 1 313.47 113.458 Q 314.671 114.048 315.882 114.982 A 18.926 18.926 0 0 1 316.699 115.649 L 319.849 117.773 L 319.043 114.624 L 319.849 112.5 A 9.345 9.345 0 0 0 315.894 108.325 Z M 100.488 164.575 L 104.517 159.155 A 9.838 9.838 0 0 0 108.495 157.511 A 13.26 13.26 0 0 0 110.229 156.079 Q 107.652 155.476 104.787 156.187 A 16.081 16.081 0 0 0 102.832 156.812 A 10.439 10.439 0 0 0 100.646 161.854 Q 100.48 162.906 100.48 164.059 A 16.516 16.516 0 0 0 100.488 164.575 Z M 104.15 38.745 L 108.179 33.325 Q 111.255 32.886 113.892 30.322 Q 110.449 29.443 106.494 31.055 Q 104.133 33.821 104.133 38.015 A 15.583 15.583 0 0 0 104.15 38.745 Z M 759.888 33.252 L 761.646 27.246 A 34.442 34.442 0 0 0 757.789 23.548 A 44.019 44.019 0 0 0 754.614 21.167 A 17.914 17.914 0 0 0 759.888 33.252 Z M 541.699 58.447 L 538.33 46.875 L 537.451 58.447 L 540.82 59.546 L 541.699 58.447 Z M 593.628 34.79 L 591.064 33.765 L 588.574 36.914 L 589.38 41.162 L 587.695 43.286 A 2.85 2.85 0 0 0 588.824 44.988 A 4.174 4.174 0 0 0 589.38 45.337 L 593.628 34.79 Z M 590.625 115.796 L 593.188 112.646 L 597.363 111.621 L 598.242 112.646 A 17.038 17.038 0 0 0 594.873 106.274 A 21.425 21.425 0 0 0 592.087 111.162 A 29.271 29.271 0 0 0 590.625 115.796 Z M 155.566 77.197 L 160.693 73.389 L 153.589 66.797 Q 152.197 71.411 155.566 77.197 Z M 364.014 72.144 L 369.067 70.166 A 17.877 17.877 0 0 0 365.915 66.962 A 12.259 12.259 0 0 0 358.887 64.307 Q 361.091 68.582 363.54 71.578 A 29.066 29.066 0 0 0 364.014 72.144 Z M 438.647 72.144 L 443.701 70.166 A 17.877 17.877 0 0 0 440.549 66.962 A 12.259 12.259 0 0 0 433.521 64.307 Q 435.725 68.582 438.173 71.578 A 29.066 29.066 0 0 0 438.647 72.144 Z M 740.918 47.461 L 739.233 52.734 L 745.898 58.008 A 34.865 34.865 0 0 0 740.918 47.461 Z M 682.031 131.47 L 680.42 136.67 L 687.085 141.943 A 34.072 34.072 0 0 0 682.031 131.47 Z M 601.831 75.732 L 598.462 73.608 L 596.777 79.98 L 597.656 84.302 L 601.831 75.732 Z M 176.733 153.809 L 171.533 153.809 L 170.728 159.888 L 174.17 161.938 L 175.854 160.913 L 176.733 153.809 Z M 99.463 145.239 L 94.336 145.239 L 93.457 151.318 L 96.899 153.369 L 98.657 152.344 L 99.463 145.239 Z M 110.596 122.388 L 105.469 122.388 L 104.59 128.467 L 108.032 130.518 L 109.717 129.492 L 110.596 122.388 Z M 95.581 21.167 L 92.285 25.854 L 95.654 30.542 L 99.17 28.711 L 99.609 26.514 L 95.581 21.167 Z M 553.491 6.738 L 546.753 9.888 L 551.807 15.234 A 36.811 36.811 0 0 0 553.467 7.017 A 40.665 40.665 0 0 0 553.491 6.738 Z M 285.571 16.626 L 284.839 18.75 L 285.571 25.049 L 289.6 26.147 A 27.351 27.351 0 0 0 285.571 16.626 Z M 265.649 92.944 L 264.917 90.82 A 27.351 27.351 0 0 0 260.889 100.342 L 264.917 99.243 L 265.649 92.944 Z M 298.022 42.48 L 297.217 44.531 L 298.022 50.903 L 302.051 51.929 A 26.62 26.62 0 0 0 298.022 42.48 Z M 276.855 140.552 L 276.05 142.676 L 276.855 148.975 L 280.811 150.073 A 26.314 26.314 0 0 0 276.855 140.552 Z M 264.771 44.092 L 263.965 41.968 Q 261.108 46.362 260.01 51.489 L 263.965 50.391 L 264.771 44.092 Z M 303.589 88.55 L 302.783 90.601 L 303.589 96.973 L 307.544 97.998 A 25.628 25.628 0 0 0 303.589 88.55 Z M 328.345 155.859 L 326.221 156.665 A 27.384 27.384 0 0 0 335.669 160.62 L 334.644 156.665 L 328.345 155.859 Z M 93.091 54.126 L 88.843 50.977 L 83.789 53.027 A 17.512 17.512 0 0 0 87.6 56.137 A 21.785 21.785 0 0 0 89.722 57.275 A 4.622 4.622 0 0 0 91.771 56.017 Q 92.32 55.455 92.788 54.673 A 9.839 9.839 0 0 0 93.091 54.126 Z M 558.398 18.75 L 555.029 15.601 L 553.345 22.998 L 556.714 25.122 L 558.398 18.75 Z M 71.924 120.557 L 67.749 117.407 L 62.695 119.531 A 16.82 16.82 0 0 0 66.682 122.71 A 20.773 20.773 0 0 0 68.628 123.706 A 4.158 4.158 0 0 0 70.655 122.484 Q 71.369 121.731 71.924 120.557 Z M 23.877 70.752 L 19.702 67.603 L 14.648 69.653 A 15.87 15.87 0 0 0 18.369 72.713 A 20.005 20.005 0 0 0 20.508 73.828 Q 22.632 73.315 23.877 70.752 Z M 761.499 61.743 A 34.024 34.024 0 0 0 757.448 67.042 A 42.96 42.96 0 0 0 755.347 70.825 A 8.739 8.739 0 0 0 760.825 65.02 A 15.459 15.459 0 0 0 761.499 61.743 Z M 197.388 31.274 L 196.582 38.379 L 202.368 39.404 A 25.157 25.157 0 0 0 197.388 31.274 Z M 628.418 142.822 L 634.277 143.848 L 635.083 136.523 Q 631.274 138.721 628.418 142.822 Z M 223.022 65.479 L 223.828 58.374 L 218.115 57.349 A 24.159 24.159 0 0 0 223.022 65.479 Z M 771.167 108.032 L 772.046 114.038 L 774.683 116.089 A 36.202 36.202 0 0 0 773.132 106.726 A 40.584 40.584 0 0 0 772.925 106.055 Q 772.046 106.421 771.167 108.032 Z M 508.228 98.877 A 76.334 76.334 0 0 0 512.199 104.153 A 93.95 93.95 0 0 0 514.966 107.373 A 12.597 12.597 0 0 0 513.684 103.513 Q 511.946 100.288 508.257 98.888 A 13.033 13.033 0 0 0 508.228 98.877 Z M 725.391 140.332 L 723.779 145.605 L 728.76 148.755 L 729.565 144.58 L 725.391 140.332 Z M 7.764 95.361 L 9.814 92.944 L 4.468 88.33 L 2.271 88.184 L 2.856 89.795 L 7.764 95.361 Z M 24.097 116.528 L 21.533 114.404 L 20.728 121.802 A 3.9 3.9 0 0 0 22.595 123.602 A 5.359 5.359 0 0 0 23.218 123.853 L 24.097 116.528 Z M 21.826 6.079 L 19.336 3.955 L 18.457 11.279 A 4.01 4.01 0 0 0 20.066 12.962 A 5.716 5.716 0 0 0 21.021 13.403 L 21.826 6.079 Z M 86.06 132.275 L 83.496 130.151 L 82.69 137.476 A 3.9 3.9 0 0 0 84.558 139.276 A 5.359 5.359 0 0 0 85.181 139.526 L 86.06 132.275 Z M 377.197 66.064 A 9.694 9.694 0 0 0 380.737 64.928 Q 383.744 63.217 384.814 59.18 A 32.398 32.398 0 0 0 377.596 65.574 A 30.628 30.628 0 0 0 377.197 66.064 Z M 451.831 66.064 A 9.694 9.694 0 0 0 455.37 64.928 Q 458.378 63.217 459.448 59.18 A 32.398 32.398 0 0 0 452.23 65.574 A 30.628 30.628 0 0 0 451.831 66.064 Z M 396.753 92.725 L 397.632 95.654 L 399.316 96.68 L 403.564 94.702 L 404.37 93.75 L 403.564 90.747 A 39.448 39.448 0 0 0 400.134 91.546 Q 398.423 92.031 396.949 92.642 A 24.262 24.262 0 0 0 396.753 92.725 Z M 471.387 92.725 L 472.266 95.654 L 473.95 96.68 L 478.198 94.702 L 479.004 93.75 L 478.198 90.747 A 39.448 39.448 0 0 0 474.768 91.546 Q 473.057 92.031 471.582 92.642 A 24.262 24.262 0 0 0 471.387 92.725 Z M 549.609 95.508 L 552.979 93.384 Q 555.835 91.626 558.911 91.26 A 17.119 17.119 0 0 0 557.977 91.233 Q 556.166 91.231 554.674 91.64 A 8.161 8.161 0 0 0 549.609 95.508 Z M 435.718 33.984 L 436.597 36.987 L 438.281 37.939 L 442.529 35.962 L 443.335 35.01 L 442.529 32.08 A 43.974 43.974 0 0 0 439.099 32.863 Q 437.502 33.299 436.111 33.831 A 26.746 26.746 0 0 0 435.718 33.984 Z M 510.352 33.984 L 511.23 36.987 L 512.915 37.939 L 517.163 35.962 L 517.969 35.01 L 517.163 32.08 A 43.974 43.974 0 0 0 513.733 32.863 Q 512.136 33.299 510.745 33.831 A 26.746 26.746 0 0 0 510.352 33.984 Z M 325.122 130.005 L 321.973 127.881 L 319.556 132.129 L 323.584 136.304 L 325.122 130.005 Z M 348.193 146.118 L 344.971 143.994 L 342.627 148.242 L 346.582 152.417 L 348.193 146.118 Z M 660.352 87.378 A 23.802 23.802 0 0 0 666.211 95.801 A 30.362 30.362 0 0 0 660.352 87.378 Z M 247.998 113.013 L 252.1 115.063 L 254.59 108.984 L 251.294 107.959 L 247.998 113.013 Z M 194.897 91.919 L 190.796 89.941 L 188.306 96.021 L 191.602 96.973 L 194.897 91.919 Z M 175.195 19.629 L 171.094 17.651 L 168.604 23.657 L 171.899 24.683 L 175.195 19.629 Z M 272.461 48.193 L 268.359 50.171 L 271.655 55.225 L 274.951 54.199 L 272.461 48.193 Z M 350.171 103.857 L 346.216 102.759 L 343.799 108.032 L 348.633 109.131 L 350.171 103.857 Z M 259.424 124.658 L 260.449 128.613 L 265.723 127.075 L 264.697 122.241 L 259.424 124.658 Z M 329.956 28.711 L 325.928 27.686 L 323.584 32.959 L 328.345 33.984 L 329.956 28.711 Z M 329.956 79.395 L 325.928 78.369 L 323.584 83.643 L 328.345 84.668 L 329.956 79.395 Z M 792.773 108.618 L 789.258 108.618 L 786.621 113.672 L 791.016 114.697 L 792.773 108.618 Z M 430.664 33.765 L 428.979 30.835 L 423.853 29.81 A 8.525 8.525 0 0 0 423.154 30.412 Q 422.451 31.093 422.187 31.74 A 2.45 2.45 0 0 0 422.168 31.787 Q 426.489 33.618 430.664 33.765 Z M 505.298 33.765 L 503.613 30.835 L 498.486 29.81 A 8.525 8.525 0 0 0 497.787 30.412 Q 497.085 31.093 496.82 31.74 A 2.45 2.45 0 0 0 496.802 31.787 Q 501.123 33.618 505.298 33.765 Z M 798.047 96.533 L 794.531 94.556 A 16.016 16.016 0 0 0 792.395 98.795 A 19.497 19.497 0 0 0 791.895 100.562 L 795.41 101.587 L 798.047 96.533 Z M 362.476 101.294 L 362.476 105.249 L 367.603 103.271 L 366.724 98.364 L 362.476 101.294 Z M 437.109 101.294 L 437.109 105.249 L 442.236 103.271 L 441.357 98.364 L 437.109 101.294 Z M 378.003 125.171 L 379.688 129.053 L 383.936 126.123 L 383.13 122.168 Q 380.2 123.12 378.003 125.171 Z M 452.637 125.171 L 454.321 129.053 L 458.569 126.123 L 457.764 122.168 Q 454.834 123.12 452.637 125.171 Z M 51.782 106.787 L 54.272 105.688 L 52.588 99.39 L 51.782 98.364 L 50.903 100.488 L 51.782 106.787 Z M 774.976 23.071 L 773.071 23.071 A 6.663 6.663 0 0 0 771.712 25.088 A 6.028 6.028 0 0 0 771.24 27.466 L 772.485 30.396 A 11.205 11.205 0 0 0 774.976 26.587 L 774.316 24.536 Q 774.895 24.488 775.252 24.249 A 1.192 1.192 0 0 0 775.562 23.95 L 774.976 23.071 Z M 100.122 102.686 L 97.559 101.66 L 96.753 107.886 L 97.559 110.01 L 98.438 108.984 L 100.122 102.686 Z M 26.587 23.218 A 21.836 21.836 0 0 0 33.325 29.517 A 10.491 10.491 0 0 0 32.165 26.681 Q 30.341 23.687 26.587 23.218 Z M 19.116 87.451 L 20.947 89.502 L 24.463 84.155 L 24.536 81.958 L 23.364 82.544 L 19.116 87.451 Z M 95.068 30.908 L 96.899 32.886 L 100.342 27.612 L 100.488 25.342 L 99.243 25.928 L 95.068 30.908 Z M 88.184 8.569 Q 87.451 3.955 84.814 0 Q 83.848 5.385 87.697 8.232 A 9.791 9.791 0 0 0 88.184 8.569 Z M 60.352 96.606 A 20.767 20.767 0 0 0 56.982 88.037 A 12.141 12.141 0 0 0 56.816 89.333 Q 56.497 93.737 59.894 96.283 A 10.136 10.136 0 0 0 60.352 96.606 Z M 91.113 72.144 L 88.623 71.118 L 87.744 77.417 L 88.623 79.468 L 89.429 78.442 L 91.113 72.144 Z M 66.138 50.61 Q 68.774 54.492 72.803 56.909 A 10.646 10.646 0 0 0 71.664 54.098 A 7.127 7.127 0 0 0 66.138 50.61 Z M 12.378 27.539 A 20.727 20.727 0 0 0 3.882 30.908 Q 9.197 31.875 12.04 28.027 A 9.896 9.896 0 0 0 12.378 27.539 Z M 697.412 56.982 L 692.358 51.709 L 693.237 58.008 L 697.412 56.982 Z M 281.616 27.173 Q 281.763 31.641 284.033 35.669 A 28.446 28.446 0 0 0 281.646 27.238 A 31.707 31.707 0 0 0 281.616 27.173 Z M 267.92 52.515 A 27.034 27.034 0 0 0 265.621 60.606 A 25.634 25.634 0 0 0 265.576 61.011 Q 267.773 56.982 267.92 52.515 Z M 243.604 37.354 L 242.798 45.483 L 245.288 43.433 A 21.414 21.414 0 0 0 244.458 39.685 A 26.797 26.797 0 0 0 243.604 37.354 Z M 294.067 53.027 Q 294.214 57.495 296.484 61.45 Q 295.972 57.129 294.067 53.027 Z M 299.561 99.097 Q 299.707 103.564 301.978 107.52 Q 301.465 103.198 299.561 99.097 Z M 336.768 152.637 Q 340.869 154.541 345.19 155.054 Q 341.235 152.783 336.768 152.637 Z M 272.9 151.099 Q 273.047 155.566 275.244 159.521 A 29.57 29.57 0 0 0 273.151 151.686 A 33.254 33.254 0 0 0 272.9 151.099 Z M 50.024 41.455 L 51.416 44.458 L 56.25 42.114 L 54.858 39.111 Q 52.661 39.771 50.024 41.455 Z M 42.554 56.763 L 40.063 54.639 L 36.694 58.887 L 39.185 60.937 Q 40.489 59.803 41.794 57.922 A 27.651 27.651 0 0 0 42.554 56.763 Z M 125.317 51.343 A 16.63 16.63 0 0 0 131.202 57.348 A 19.496 19.496 0 0 0 131.323 57.422 Q 129.199 53.906 125.317 51.343 Z M 732.935 136.157 L 732.129 139.307 L 736.304 142.456 L 737.109 139.307 Q 735.352 137.183 732.935 136.157 Z M 741.284 138.281 L 740.479 145.605 A 13.338 13.338 0 0 0 741.958 143.738 Q 742.928 142.28 743.774 140.332 L 741.284 138.281 Z M 244.702 103.931 L 247.119 104.956 L 249.609 99.902 L 247.119 98.877 A 12.63 12.63 0 0 0 245.098 102.602 A 15.327 15.327 0 0 0 244.702 103.931 Z M 198.193 101.074 L 195.776 100.049 L 193.286 105.103 L 195.776 106.128 A 12.63 12.63 0 0 0 197.798 102.403 A 15.327 15.327 0 0 0 198.193 101.074 Z M 267.554 58.301 L 265.063 59.253 Q 265.796 62.256 267.554 64.307 L 269.971 63.354 L 267.554 58.301 Z M 178.491 28.711 L 176.001 27.759 L 173.584 32.812 L 176.001 33.765 Q 177.686 31.714 178.491 28.711 Z M 637.573 58.521 L 634.277 57.495 L 633.398 62.769 L 634.277 63.794 A 13.338 13.338 0 0 0 635.757 61.926 Q 636.726 60.468 637.573 58.521 Z M 639.331 150.293 A 18.797 18.797 0 0 0 642.409 154.749 A 23.307 23.307 0 0 0 644.312 156.592 A 13.406 13.406 0 0 0 641.382 152.096 A 17.665 17.665 0 0 0 639.331 150.293 Z M 120.996 95.068 L 119.238 99.17 L 123.56 101.221 A 9.069 9.069 0 0 0 121.261 95.367 A 11.623 11.623 0 0 0 120.996 95.068 Z M 123.56 142.603 L 121.875 146.704 L 126.123 148.755 A 8.966 8.966 0 0 0 123.56 142.603 Z M 146.704 64.893 L 144.946 68.994 L 149.268 70.972 Q 149.121 67.529 146.704 64.893 Z M 173.218 30.176 L 171.46 34.204 L 175.781 36.255 A 8.863 8.863 0 0 0 173.295 30.258 A 11.313 11.313 0 0 0 173.218 30.176 Z M 90.894 60.864 L 89.136 64.966 L 93.384 66.943 A 9.03 9.03 0 0 0 90.894 60.864 Z M 8.203 15.967 L 12.378 16.772 L 13.477 15.088 L 12.378 11.719 A 12.375 12.375 0 0 0 9.791 13.905 A 16.639 16.639 0 0 0 8.203 15.967 Z M 647.754 42.114 L 654.419 43.14 L 652.808 39.99 Q 650.391 40.43 647.754 42.114 Z M 71.924 92.432 L 71.118 96.606 L 72.803 97.632 L 76.172 96.606 Q 74.707 94.189 71.924 92.432 Z M 525.659 126.343 L 523.169 127.441 L 523.975 132.715 A 3.006 3.006 0 0 0 524.464 132.445 Q 525.238 131.934 526.424 130.71 A 30.114 30.114 0 0 0 526.538 130.591 L 525.659 126.343 Z M 4.688 110.083 L 8.057 111.108 L 9.741 110.083 L 8.862 105.908 A 14.531 14.531 0 0 0 6.334 107.962 A 11.862 11.862 0 0 0 4.688 110.083 Z M 511.011 30.981 L 508.521 29.883 L 506.03 33.105 L 510.205 35.156 L 511.011 30.981 Z M 11.426 138.794 L 14.722 139.819 L 16.406 138.794 L 15.601 134.619 A 14.13 14.13 0 0 0 13.297 136.412 A 10.877 10.877 0 0 0 11.426 138.794 Z M 562.939 9.229 L 559.57 8.203 L 557.886 11.353 L 558.765 13.477 L 562.939 9.229 Z M 272.461 68.408 L 266.675 69.36 L 268.359 72.437 A 18.111 18.111 0 0 0 270.574 70.639 A 13.407 13.407 0 0 0 272.461 68.408 Z M 196.582 111.182 L 190.796 110.156 Q 192.261 112.354 194.897 114.185 L 196.582 111.182 Z M 246.313 93.823 L 252.1 94.849 Q 250.635 92.651 247.998 90.82 L 246.313 93.823 Z M 354.346 123.193 L 354.346 128.101 A 9.72 9.72 0 0 0 357.715 123.193 L 356.836 122.168 L 354.346 123.193 Z M 428.979 123.193 L 428.979 128.101 A 9.72 9.72 0 0 0 432.349 123.193 L 431.47 122.168 L 428.979 123.193 Z M 760.913 83.862 L 756.519 83.862 L 755.64 86.865 L 756.519 87.891 A 7.892 7.892 0 0 0 759.471 85.836 A 11.348 11.348 0 0 0 760.913 83.862 Z M 591.431 94.116 L 588.867 93.018 L 590.552 99.39 L 591.431 94.116 Z M 693.164 111.182 L 687.305 106.934 Q 689.795 110.156 693.164 111.182 Z M 651.855 152.417 L 645.996 148.242 A 13.226 13.226 0 0 0 648.343 150.627 A 10.232 10.232 0 0 0 651.855 152.417 Z M 362.769 36.475 L 364.453 41.455 L 366.138 36.475 L 365.332 35.522 L 362.769 36.475 Z M 437.402 36.475 L 439.087 41.455 L 440.771 36.475 L 439.966 35.522 L 437.402 36.475 Z M 534.521 24.609 L 530.273 23.584 L 529.468 26.733 L 531.152 27.832 A 8.702 8.702 0 0 0 532.91 26.514 Q 533.621 25.834 534.279 24.946 A 15.24 15.24 0 0 0 534.521 24.609 Z M 638.599 87.231 L 637.793 89.355 L 640.283 92.505 L 641.895 88.257 L 638.599 87.231 Z M 774.023 73.389 L 778.418 71.338 A 4.993 4.993 0 0 0 777.987 69.888 A 3.986 3.986 0 0 0 776.66 68.335 A 7.705 7.705 0 0 0 774.151 72.668 A 10.025 10.025 0 0 0 774.023 73.389 Z M 505.957 113.159 L 501.782 110.889 L 501.782 115.43 L 502.588 115.43 L 505.957 113.159 Z M 750.22 33.252 L 745.825 31.274 L 744.946 34.277 L 745.825 35.303 L 750.22 33.252 Z M 208.154 26.221 L 206.47 25.269 L 203.979 28.271 L 207.275 30.322 L 208.154 26.221 Z M 802.734 118.066 L 800.977 116.089 L 798.34 119.092 L 801.855 121.143 L 802.734 118.066 Z M 208.154 139.38 L 206.47 138.354 L 203.979 141.431 L 207.275 143.408 L 208.154 139.38 Z M 212.329 70.532 L 213.94 71.558 L 216.431 68.481 L 213.135 66.504 L 212.329 70.532 Z M 267.48 120.923 L 266.455 122.534 L 269.531 125.024 L 271.509 121.729 L 267.48 120.923 Z M 427.222 145.166 A 24.374 24.374 0 0 0 428.398 147.85 Q 429.077 149.163 429.859 150.206 A 12.867 12.867 0 0 0 430.591 151.099 A 12.788 12.788 0 0 0 429.463 148.029 A 10.055 10.055 0 0 0 427.222 145.166 Z M 501.855 145.166 A 24.374 24.374 0 0 0 503.032 147.85 Q 503.711 149.163 504.493 150.206 A 12.867 12.867 0 0 0 505.225 151.099 A 12.788 12.788 0 0 0 504.097 148.029 A 10.055 10.055 0 0 0 501.855 145.166 Z M 410.921 64.148 A 11.344 11.344 0 0 0 411.694 65.039 Q 410.815 61.377 408.325 59.18 Q 409.386 62.185 410.921 64.148 Z M 485.555 64.148 A 11.344 11.344 0 0 0 486.328 65.039 Q 485.449 61.377 482.959 59.18 Q 484.02 62.185 485.555 64.148 Z M 582.568 83.716 L 586.816 78.442 A 11.781 11.781 0 0 0 582.968 82.872 A 14.441 14.441 0 0 0 582.568 83.716 Z M 44.824 62.183 L 49.805 57.642 A 9.71 9.71 0 0 0 46.169 60.313 A 13.236 13.236 0 0 0 44.824 62.183 Z M 38.379 35.815 L 35.815 42.041 A 9.701 9.701 0 0 0 38 37.954 A 13.099 13.099 0 0 0 38.379 35.815 Z M 422.974 114.038 L 424.658 116.016 L 427.222 115.063 L 425.464 111.108 L 422.974 114.038 Z M 497.607 114.038 L 499.292 116.016 L 501.855 115.063 L 500.098 111.108 L 497.607 114.038 Z M 104.59 101.074 L 100.269 95.947 Q 101.66 98.95 104.59 101.074 Z M 274.365 96.899 A 9.03 9.03 0 0 0 268.286 99.39 A 10.98 10.98 0 0 0 271.789 98.541 A 9.727 9.727 0 0 0 274.365 96.899 Z M 232.104 33.105 A 9.03 9.03 0 0 0 229.614 27.026 A 10.98 10.98 0 0 0 230.463 30.529 A 9.727 9.727 0 0 0 232.104 33.105 Z M 232.104 146.265 A 9.03 9.03 0 0 0 229.614 140.186 A 10.98 10.98 0 0 0 230.463 143.689 A 9.727 9.727 0 0 0 232.104 146.265 Z M 540.381 97.632 A 11.057 11.057 0 0 0 545.435 101.88 A 12.263 12.263 0 0 0 540.381 97.632 Z M 174.023 44.824 A 8.474 8.474 0 0 0 176.44 50.83 Q 176.147 47.314 174.023 44.824 Z M 148.608 39.111 L 146.851 43.213 L 151.172 42.187 Q 150.439 40.137 148.608 39.111 Z M 128.687 71.851 L 127.002 75.879 L 131.323 74.927 A 5.466 5.466 0 0 0 128.687 71.851 Z M 161.646 119.165 L 159.961 123.193 L 164.282 122.168 Q 163.55 120.19 161.646 119.165 Z M 724.072 145.752 Q 724.658 149.268 727.441 151.025 A 12.558 12.558 0 0 0 724.072 145.752 Z M 526.538 69.287 L 529.028 68.188 L 528.223 63.94 A 9.618 9.618 0 0 0 526.703 67.538 A 9.258 9.258 0 0 0 526.538 69.287 Z M 583.008 88.843 L 582.129 84.595 L 581.323 89.868 L 583.008 89.868 L 583.008 88.843 Z M 655.078 154.395 A 5.413 5.413 0 0 0 658.315 153.19 Q 659.274 152.447 660.132 151.245 A 6.482 6.482 0 0 0 656.41 152.924 A 9.648 9.648 0 0 0 655.078 154.395 Z M 696.387 113.086 A 5.413 5.413 0 0 0 699.623 111.882 Q 700.582 111.138 701.44 109.937 A 6.886 6.886 0 0 0 697.609 111.745 A 9.917 9.917 0 0 0 696.387 113.086 Z M 404.15 22.632 A 9.497 9.497 0 0 0 405.663 24.215 Q 406.918 25.237 408.35 25.527 A 5.782 5.782 0 0 0 409.204 25.635 A 8.919 8.919 0 0 0 407.686 24.021 A 5.963 5.963 0 0 0 404.15 22.632 Z M 478.784 22.632 A 9.497 9.497 0 0 0 480.297 24.215 Q 481.551 25.237 482.984 25.527 A 5.782 5.782 0 0 0 483.838 25.635 A 8.919 8.919 0 0 0 482.32 24.021 A 5.963 5.963 0 0 0 478.784 22.632 Z M 578.247 51.05 A 9.648 9.648 0 0 0 580.811 56.396 A 12.089 12.089 0 0 0 578.247 51.05 Z M 707.959 119.897 L 706.274 116.748 L 704.59 120.996 L 707.959 119.897 Z M 749.268 78.589 L 747.583 75.439 L 745.898 79.687 L 749.268 78.589 Z M 717.48 72.144 L 718.286 74.268 L 720.85 73.169 L 719.165 70.02 Q 718.066 70.312 717.48 72.144 Z M 676.172 113.452 L 676.978 115.576 L 679.468 114.551 L 677.856 111.401 A 1.688 1.688 0 0 0 676.843 112.032 Q 676.621 112.304 676.446 112.688 A 5.236 5.236 0 0 0 676.172 113.452 Z M 266.235 96.094 L 265.283 94.409 L 262.207 95.288 L 264.258 97.778 A 2.409 2.409 0 0 0 265.877 96.73 A 3.842 3.842 0 0 0 266.235 96.094 Z M 232.91 25.049 L 234.595 24.023 L 233.789 21.021 L 231.299 22.998 A 2.323 2.323 0 0 0 232.365 24.748 A 3.613 3.613 0 0 0 232.91 25.049 Z M 705.835 90.161 A 6.794 6.794 0 0 0 707.405 92.831 Q 708.107 93.585 709.074 94.248 A 12.338 12.338 0 0 0 709.204 94.336 A 6.56 6.56 0 0 0 706.158 90.35 A 8.749 8.749 0 0 0 705.835 90.161 Z M 664.526 131.47 A 6.794 6.794 0 0 0 666.097 134.139 Q 666.798 134.894 667.765 135.557 A 12.338 12.338 0 0 0 667.896 135.645 A 6.56 6.56 0 0 0 664.85 131.658 A 8.749 8.749 0 0 0 664.526 131.47 Z M 173.145 52.881 L 171.533 53.906 L 172.339 56.909 L 174.829 54.932 A 2.515 2.515 0 0 0 173.616 53.132 A 3.839 3.839 0 0 0 173.145 52.881 Z M 764.429 114.624 A 7.476 7.476 0 0 0 768.299 117.536 A 9.573 9.573 0 0 0 768.823 117.7 A 9.983 9.983 0 0 0 765.702 115.165 A 9.609 9.609 0 0 0 764.429 114.624 Z M 232.91 138.135 L 234.595 137.183 L 233.789 134.18 L 231.299 136.157 Q 231.445 137.476 232.91 138.135 Z M 288.56 135.159 A 22.011 22.011 0 0 0 288.501 135.278 Q 290.862 134.514 291.577 131.446 A 9.804 9.804 0 0 0 291.65 131.104 Q 290 132.252 288.56 135.159 Z M 110.596 78.735 L 114.917 81.738 Q 113.159 79.614 110.596 78.735 Z M 436.304 89.648 A 8.854 8.854 0 0 0 437.513 91.12 Q 438.403 91.977 439.427 92.373 A 4.986 4.986 0 0 0 440.479 92.651 A 8.992 8.992 0 0 0 439.13 91.117 A 6.106 6.106 0 0 0 436.304 89.648 Z M 510.937 89.648 A 8.854 8.854 0 0 0 512.147 91.12 Q 513.037 91.977 514.061 92.373 A 4.986 4.986 0 0 0 515.112 92.651 A 8.992 8.992 0 0 0 513.764 91.117 A 6.106 6.106 0 0 0 510.937 89.648 Z M 712.134 92.651 L 710.449 89.502 L 709.644 93.677 L 712.134 92.651 Z M 108.911 135.571 L 107.153 137.549 L 109.717 138.574 L 110.596 135.571 L 108.911 135.571 Z M 781.787 80.64 L 780.029 80.64 L 779.15 83.716 L 780.908 83.716 L 781.787 80.64 Z M 243.604 63.647 L 241.113 67.676 Q 243.53 66.87 243.604 63.647 Z M 342.7 120.557 A 6.676 6.676 0 0 0 343.433 122.853 A 6.004 6.004 0 0 0 345.044 124.731 A 9.57 9.57 0 0 0 342.7 120.557 Z M 504.712 95.654 Q 503.247 97.192 503.027 100.122 Q 504.492 98.584 504.712 95.654 Z M 8.496 57.422 L 12.744 55.225 A 5.411 5.411 0 0 0 8.947 56.923 A 7.547 7.547 0 0 0 8.496 57.422 Z M 334.717 41.382 L 333.105 41.382 L 332.3 44.531 L 333.911 44.531 L 334.717 41.382 Z M 312.598 84.229 L 310.986 84.229 L 310.181 87.378 L 311.792 87.378 L 312.598 84.229 Z M 348.193 19.409 L 348.193 21.021 L 351.343 20.215 L 351.343 18.604 L 348.193 19.409 Z M 669.507 42.114 L 672.803 45.264 A 5.604 5.604 0 0 0 672.35 43.941 Q 671.484 42.224 669.507 42.114 Z M 536.646 117.7 L 533.276 114.551 A 5.345 5.345 0 0 0 534.116 116.138 Q 535.036 117.306 536.596 117.688 A 5.662 5.662 0 0 0 536.646 117.7 Z M 573.193 41.528 L 569.824 38.379 A 5.735 5.735 0 0 0 570.675 39.937 A 4.429 4.429 0 0 0 573.193 41.528 Z M 685.693 32.812 L 682.324 29.663 A 5.237 5.237 0 0 0 685.325 32.677 A 6.486 6.486 0 0 0 685.693 32.813 Z M 63.647 122.168 L 61.963 126.489 A 6.363 6.363 0 0 0 63.627 122.564 A 8.147 8.147 0 0 0 63.647 122.168 Z M 47.607 88.184 L 49.292 92.505 A 7.008 7.008 0 0 0 48.834 90.143 A 6.227 6.227 0 0 0 47.607 88.184 Z M 41.748 25.269 L 38.379 22.119 Q 39.478 24.39 41.748 25.269 Z M 81.226 52.661 L 77.856 49.512 A 6.991 6.991 0 0 0 79.278 51.428 A 6.169 6.169 0 0 0 81.226 52.661 Z M 533.276 41.528 A 6.696 6.696 0 0 0 534.37 44.961 A 8.68 8.68 0 0 0 534.961 45.776 A 6.696 6.696 0 0 0 533.868 42.344 A 8.68 8.68 0 0 0 533.276 41.528 Z M 97.778 47.461 L 96.899 49.512 L 98.657 50.537 L 99.536 47.461 L 97.778 47.461 Z M 132.422 122.461 L 131.616 124.512 L 133.301 125.537 L 134.18 122.461 L 132.422 122.461 Z M 136.963 117.92 L 136.084 119.971 L 137.842 120.996 L 138.647 117.92 L 136.963 117.92 Z M 128.833 109.863 L 127.954 111.914 L 129.712 112.939 L 130.518 109.863 L 128.833 109.863 Z M 111.475 44.238 L 110.596 46.216 L 112.354 47.241 L 113.232 44.238 L 111.475 44.238 Z M 639.258 141.797 L 640.942 142.822 L 641.748 140.698 L 639.258 139.673 L 639.258 141.797 Z M 158.569 89.282 L 157.69 91.26 L 159.448 92.285 L 160.254 89.282 L 158.569 89.282 Z M 143.188 29.37 L 142.31 31.421 L 143.994 32.373 L 144.873 29.37 L 143.188 29.37 Z M 222.217 52.295 L 223.022 50.317 L 221.411 49.292 L 220.532 52.295 L 222.217 52.295 Z M 788.159 139.673 L 787.28 139.673 L 786.401 142.676 L 788.159 142.676 L 788.159 139.673 Z M 12.744 65.112 A 4.701 4.701 0 0 0 12.055 65.008 Q 10.487 64.892 9.264 65.963 A 5.141 5.141 0 0 0 8.862 66.357 Q 10.915 66.631 12.521 65.306 A 5.912 5.912 0 0 0 12.744 65.112 Z M 52.588 96.313 A 4.605 4.605 0 0 0 55.051 93.5 A 5.952 5.952 0 0 0 55.151 93.164 Q 53.32 94.189 52.588 96.313 Z M 45.044 18.97 A 5.681 5.681 0 0 0 45.731 20.504 A 4.398 4.398 0 0 0 47.607 22.119 A 5.856 5.856 0 0 0 45.044 18.97 Z M 24.683 79.687 A 7.236 7.236 0 0 0 24.719 78.967 A 5.982 5.982 0 0 0 23.804 75.732 A 5.968 5.968 0 0 0 23.701 76.561 Q 23.694 76.697 23.694 76.831 A 4.514 4.514 0 0 0 24.683 79.687 Z M 448.389 150.073 L 445.825 153.076 Q 447.921 152.941 448.332 150.497 A 6.646 6.646 0 0 0 448.389 150.073 Z M 523.022 150.073 L 520.459 153.076 Q 522.555 152.941 522.966 150.497 A 6.646 6.646 0 0 0 523.022 150.073 Z M 84.595 46.362 A 5.944 5.944 0 0 0 85.237 47.842 A 4.351 4.351 0 0 0 87.085 49.512 A 5.527 5.527 0 0 0 84.595 46.362 Z M 41.895 92.432 A 6.158 6.158 0 0 0 41.97 91.679 Q 41.974 91.577 41.974 91.476 A 4.484 4.484 0 0 0 40.942 88.55 A 6.843 6.843 0 0 0 40.908 89.231 A 5.472 5.472 0 0 0 41.895 92.432 Z M 719.604 48.413 Q 721.216 47.461 722.095 45.264 A 4.649 4.649 0 0 0 720.368 46.852 Q 719.919 47.526 719.604 48.413 Z M 429.492 64.087 L 426.929 67.017 A 2.737 2.737 0 0 0 428.151 66.669 Q 429.2 66.056 429.454 64.385 A 6.504 6.504 0 0 0 429.492 64.087 Z M 504.126 64.087 L 501.563 67.017 A 2.737 2.737 0 0 0 502.785 66.669 Q 503.833 66.056 504.088 64.385 A 6.504 6.504 0 0 0 504.126 64.087 Z M 546.68 67.163 L 543.311 69.287 Q 545.346 69.221 546.44 67.566 A 5.096 5.096 0 0 0 546.68 67.163 Z M 400.928 39.478 L 400.928 40.43 L 403.418 40.43 L 403.418 38.452 L 400.928 39.478 Z M 475.562 39.478 L 475.562 40.43 L 478.052 40.43 L 478.052 38.452 L 475.562 39.478 Z M 216.211 16.04 Q 216.943 18.018 218.701 19.116 A 6.03 6.03 0 0 0 217.653 17.25 A 5.444 5.444 0 0 0 216.211 16.04 Z M 663.721 52.734 L 660.352 50.684 A 5.381 5.381 0 0 0 661.544 51.905 A 4.435 4.435 0 0 0 663.721 52.734 Z M 804.492 123.12 L 803.613 120.117 L 802.734 123.12 L 804.492 123.12 Z M 257.3 112.866 A 5.621 5.621 0 0 0 260.303 110.376 A 5.229 5.229 0 0 0 257.3 112.866 Z M 216.211 129.272 A 5.621 5.621 0 0 0 218.701 132.275 A 5.876 5.876 0 0 0 217.789 130.594 A 5.056 5.056 0 0 0 216.211 129.272 Z M 426.343 117.041 L 428.906 117.993 L 428.906 116.016 L 426.343 117.041 Z M 500.977 117.041 L 503.54 117.993 L 503.54 116.016 L 500.977 117.041 Z M 25.781 53.613 A 4.209 4.209 0 0 0 25.98 54.944 A 3.309 3.309 0 0 0 27.466 56.763 Q 27.167 55.031 26.235 54.029 A 3.837 3.837 0 0 0 25.781 53.613 Z M 661.157 77.93 A 6.415 6.415 0 0 0 661.586 79.38 A 4.546 4.546 0 0 0 662.842 81.079 A 5.986 5.986 0 0 0 662.511 79.749 A 3.963 3.963 0 0 0 661.157 77.93 Z M 63.867 51.489 A 4.889 4.889 0 0 0 64.141 50.711 Q 64.516 49.235 63.685 48.027 A 3.791 3.791 0 0 0 63.647 47.974 A 6.148 6.148 0 0 0 63.448 48.883 Q 63.401 49.229 63.401 49.561 A 4.093 4.093 0 0 0 63.867 51.489 Z M 727.515 60.645 A 3.91 3.91 0 0 0 728.386 59.62 Q 728.903 58.765 729.199 57.495 A 2.986 2.986 0 0 0 728.299 58.437 Q 727.77 59.28 727.515 60.645 Z M 686.206 101.953 Q 687.378 101.001 687.817 98.804 A 2.907 2.907 0 0 0 687.014 99.668 Q 686.51 100.468 686.243 101.766 A 10.943 10.943 0 0 0 686.206 101.953 Z M 296.484 131.104 A 6.476 6.476 0 0 0 296.833 132.494 Q 297.212 133.491 297.92 134.16 A 4.093 4.093 0 0 0 298.022 134.253 A 6.782 6.782 0 0 0 297.728 132.977 Q 297.47 132.228 297.041 131.676 A 3.628 3.628 0 0 0 296.484 131.104 Z M 405.145 84.945 A 3.032 3.032 0 0 0 405.981 85.767 A 4.837 4.837 0 0 0 405.754 84.561 A 3.146 3.146 0 0 0 404.297 82.764 Q 404.568 84.119 405.145 84.945 Z M 479.779 84.945 A 3.032 3.032 0 0 0 480.615 85.767 A 4.837 4.837 0 0 0 480.388 84.561 A 3.146 3.146 0 0 0 478.931 82.764 Q 479.202 84.119 479.779 84.945 Z M 380.347 70.02 L 381.152 72.949 L 382.031 71.924 A 4.918 4.918 0 0 0 381.684 71.161 Q 381.153 70.235 380.347 70.02 Z M 454.98 70.02 L 455.786 72.949 L 456.665 71.924 A 4.918 4.918 0 0 0 456.318 71.161 Q 455.787 70.235 454.98 70.02 Z M 98.511 108.179 L 97.632 108.179 L 98.511 111.182 L 98.511 108.179 Z M 666.211 58.008 L 665.332 60.132 L 667.017 60.132 L 667.017 58.008 L 666.211 58.008 Z M 776.44 93.97 A 3.514 3.514 0 0 0 777.056 95 Q 777.723 95.757 778.805 95.917 A 3.89 3.89 0 0 0 779.077 95.947 A 3.551 3.551 0 0 0 777.42 94.334 A 5.303 5.303 0 0 0 776.44 93.97 Z M 114.917 54.346 A 5.319 5.319 0 0 0 115.877 55.488 A 4.156 4.156 0 0 0 117.554 56.396 A 3.721 3.721 0 0 0 115.993 54.798 A 5.524 5.524 0 0 0 114.917 54.346 Z M 635.889 51.196 L 633.398 49.072 A 3.81 3.81 0 0 0 633.803 50.022 Q 634.49 51.143 635.889 51.196 Z M 576.563 71.191 L 574.072 69.067 Q 574.805 70.972 576.563 71.191 Z M 586.816 94.336 L 589.307 92.212 A 4.697 4.697 0 0 0 588.109 92.778 A 3.506 3.506 0 0 0 586.816 94.336 Z M 246.313 121.143 A 3.9 3.9 0 0 0 244.446 119.342 A 5.359 5.359 0 0 0 243.823 119.092 A 3.516 3.516 0 0 0 245.4 120.756 A 5.207 5.207 0 0 0 246.313 121.143 Z M 196.582 83.862 A 3.9 3.9 0 0 0 198.449 85.662 A 5.359 5.359 0 0 0 199.072 85.913 A 3.9 3.9 0 0 0 197.205 84.113 A 5.359 5.359 0 0 0 196.582 83.862 Z M 667.31 34.937 L 669.8 36.987 A 3.418 3.418 0 0 0 667.904 35.143 A 4.963 4.963 0 0 0 667.31 34.937 Z M 176.807 11.572 A 3.841 3.841 0 0 0 178.43 13.179 A 5.439 5.439 0 0 0 179.297 13.55 A 3.345 3.345 0 0 0 177.649 11.888 A 4.975 4.975 0 0 0 176.807 11.572 Z M 266.675 42.114 A 4.528 4.528 0 0 0 265.437 42.674 A 3.598 3.598 0 0 0 264.185 44.092 A 5.123 5.123 0 0 0 265.391 43.518 A 3.761 3.761 0 0 0 266.675 42.114 Z M 15.527 61.963 A 5.614 5.614 0 0 0 15.12 61.084 Q 14.447 59.93 13.403 59.766 Q 13.833 60.883 14.49 61.446 A 2.304 2.304 0 0 0 15.527 61.963 Z M 750.952 53.687 L 749.194 52.661 L 749.194 54.712 L 750.952 53.687 Z M 381.152 66.064 L 382.031 68.042 L 382.837 66.064 L 381.152 66.064 Z M 455.786 66.064 L 456.665 68.042 L 457.471 66.064 L 455.786 66.064 Z M 2.637 77.271 A 2.06 2.06 0 0 0 2.025 77.131 Q 1.013 77.064 0 78.076 A 2.23 2.23 0 0 0 0.504 78.224 Q 1.619 78.408 2.637 77.271 Z M 369.58 52.295 L 370.386 54.199 L 371.265 52.295 L 369.58 52.295 Z M 444.214 52.295 L 445.02 54.199 L 445.898 52.295 L 444.214 52.295 Z M 4.174 56.916 A 4.538 4.538 0 0 0 4.028 57.056 A 1.646 1.646 0 0 0 4.456 57.117 Q 5.372 57.132 6.665 56.25 Q 5.355 55.836 4.174 56.916 Z M 28.052 68.262 A 2.66 2.66 0 0 0 29.212 70.074 A 4.062 4.062 0 0 0 29.736 70.386 A 2.581 2.581 0 0 0 28.528 68.518 A 3.65 3.65 0 0 0 28.052 68.262 Z M 650.098 151.245 A 2.022 2.022 0 0 0 650.981 150.635 Q 651.235 150.345 651.445 149.936 A 5.799 5.799 0 0 0 651.782 149.121 A 1.573 1.573 0 0 0 650.934 149.619 Q 650.432 150.157 650.098 151.245 Z M 726.606 140.535 A 5.285 5.285 0 0 0 726.636 140.552 A 2.581 2.581 0 0 0 725.428 138.684 A 3.65 3.65 0 0 0 724.951 138.428 Q 725.169 139.733 726.606 140.535 Z M 691.406 109.937 Q 692.505 109.644 693.091 107.812 Q 691.992 108.105 691.406 109.937 Z M 97.192 51.636 A 2.66 2.66 0 0 0 98.352 53.449 A 4.062 4.062 0 0 0 98.877 53.76 A 2.66 2.66 0 0 0 97.717 51.947 A 4.062 4.062 0 0 0 97.192 51.636 Z M 786.401 148.682 A 2.751 2.751 0 0 0 787.428 150.274 A 4.215 4.215 0 0 0 788.159 150.732 A 2.458 2.458 0 0 0 787.011 149.005 A 3.941 3.941 0 0 0 786.401 148.682 Z M 32.739 82.324 A 2.726 2.726 0 0 0 32.841 81.592 Q 32.841 81.015 32.589 80.439 A 4.08 4.08 0 0 0 32.153 79.687 Q 31.815 80.759 32.345 81.745 A 3.603 3.603 0 0 0 32.739 82.324 Z M 545.068 55.298 Q 545.361 56.396 546.753 57.422 A 2.66 2.66 0 0 0 545.593 55.609 A 4.062 4.062 0 0 0 545.068 55.298 Z M 13.74 73.519 A 5.285 5.285 0 0 0 13.77 73.535 Q 13.477 72.437 12.085 71.411 Q 12.302 72.716 13.74 73.519 Z M 81.226 54.785 A 2.963 2.963 0 0 0 82.579 56.716 A 4.182 4.182 0 0 0 82.91 56.909 Q 82.617 55.811 81.226 54.785 Z M 641.382 52.075 A 1.831 1.831 0 0 0 642.272 51.509 Q 642.746 50.986 643.066 50.024 A 1.688 1.688 0 0 0 642.053 50.655 Q 641.831 50.927 641.656 51.311 A 5.236 5.236 0 0 0 641.382 52.075 Z M 48.486 86.353 Q 48.853 84.961 47.9 83.716 Q 47.681 84.741 48.486 86.353 Z M 219.653 27.246 A 2.85 2.85 0 0 0 220.782 28.948 A 4.174 4.174 0 0 0 221.338 29.297 A 2.515 2.515 0 0 0 220.125 27.497 A 3.839 3.839 0 0 0 219.653 27.246 Z M 219.653 140.405 A 2.85 2.85 0 0 0 220.782 142.108 A 4.174 4.174 0 0 0 221.338 142.456 A 2.515 2.515 0 0 0 220.125 140.657 A 3.839 3.839 0 0 0 219.653 140.405 Z M 130.444 134.546 A 2.615 2.615 0 0 0 131.571 136.172 A 4.02 4.02 0 0 0 132.202 136.523 A 2.336 2.336 0 0 0 131.241 134.995 A 3.895 3.895 0 0 0 130.444 134.546 Z M 41.748 27.393 Q 41.968 28.784 43.359 29.517 Q 43.196 28.701 42.387 27.925 A 6.47 6.47 0 0 0 41.748 27.393 Z M 639.478 72.51 A 1.765 1.765 0 0 0 640.385 71.906 Q 640.614 71.632 640.797 71.244 A 5.329 5.329 0 0 0 641.089 70.459 A 1.564 1.564 0 0 0 640.201 71.004 Q 639.754 71.523 639.478 72.51 Z M 200.757 69.507 A 2.62 2.62 0 0 0 199.707 67.811 A 3.975 3.975 0 0 0 199.146 67.456 A 2.323 2.323 0 0 0 200.211 69.206 A 3.613 3.613 0 0 0 200.757 69.507 Z M 229.614 39.185 A 2.62 2.62 0 0 0 228.565 37.489 A 3.975 3.975 0 0 0 228.003 37.134 A 2.323 2.323 0 0 0 229.069 38.883 A 3.613 3.613 0 0 0 229.614 39.185 Z M 227.124 92.944 A 2.62 2.62 0 0 0 228.174 94.64 A 3.975 3.975 0 0 0 228.735 94.995 A 2.323 2.323 0 0 0 227.669 93.246 A 3.613 3.613 0 0 0 227.124 92.944 Z M 44.238 95.215 A 3.333 3.333 0 0 0 45.025 94.731 A 2.289 2.289 0 0 0 45.85 93.164 A 3.694 3.694 0 0 0 45.047 93.722 A 2.567 2.567 0 0 0 44.238 95.215 Z M 438.126 142.637 A 1.697 1.697 0 0 0 439.087 143.188 A 5.257 5.257 0 0 0 438.751 142.412 Q 438.218 141.428 437.402 141.211 Q 437.673 142.138 438.126 142.637 Z M 512.76 142.637 A 1.697 1.697 0 0 0 513.721 143.188 A 5.257 5.257 0 0 0 513.385 142.412 Q 512.852 141.428 512.036 141.211 Q 512.306 142.138 512.76 142.637 Z M 419.23 56.651 A 1.697 1.697 0 0 0 420.19 57.202 A 5.257 5.257 0 0 0 419.854 56.426 Q 419.321 55.442 418.506 55.225 Q 418.776 56.152 419.23 56.651 Z M 493.864 56.651 A 1.697 1.697 0 0 0 494.824 57.202 A 5.257 5.257 0 0 0 494.488 56.426 Q 493.955 55.442 493.14 55.225 Q 493.41 56.152 493.864 56.651 Z M 62.251 130.931 A 1.871 1.871 0 0 0 62.256 130.957 A 3.915 3.915 0 0 0 62.726 130.178 Q 63.117 129.303 62.915 128.394 Q 62.047 129.912 62.251 130.931 Z M 215.771 112.061 A 2.62 2.62 0 0 0 214.722 110.365 A 3.975 3.975 0 0 0 214.16 110.01 Q 214.307 111.328 215.771 112.061 Z M 408.545 38.452 A 5.448 5.448 0 0 0 408.859 39.213 Q 409.397 40.263 410.229 40.43 A 5.257 5.257 0 0 0 409.893 39.654 Q 409.36 38.67 408.545 38.452 Z M 483.179 38.452 A 5.448 5.448 0 0 0 483.493 39.213 Q 484.031 40.263 484.863 40.43 A 5.257 5.257 0 0 0 484.527 39.654 Q 483.994 38.67 483.179 38.452 Z M 439.673 79.834 A 5.448 5.448 0 0 0 439.987 80.595 Q 440.525 81.645 441.357 81.812 A 5.257 5.257 0 0 0 441.021 81.035 Q 440.488 80.051 439.673 79.834 Z M 514.307 79.834 A 5.448 5.448 0 0 0 514.621 80.595 Q 515.159 81.645 515.991 81.812 A 5.257 5.257 0 0 0 515.655 81.035 Q 515.122 80.051 514.307 79.834 Z M 268.506 109.351 A 2.482 2.482 0 0 0 270.225 108.202 A 3.788 3.788 0 0 0 270.483 107.739 Q 269.165 107.886 268.506 109.351 Z M 438.794 116.016 A 9.977 9.977 0 0 0 439.229 116.743 Q 439.874 117.719 440.479 117.993 A 5.257 5.257 0 0 0 440.142 117.217 Q 439.609 116.233 438.794 116.016 Z M 513.428 116.016 A 9.977 9.977 0 0 0 513.863 116.743 Q 514.508 117.719 515.112 117.993 A 5.257 5.257 0 0 0 514.776 117.217 Q 514.243 116.233 513.428 116.016 Z M 313.989 140.552 L 314.795 142.676 L 314.795 140.552 L 313.989 140.552 Z M 131.323 43.213 L 132.202 45.19 L 132.202 43.213 L 131.323 43.213 Z M 729.053 125.171 L 729.932 127.148 L 729.932 125.171 L 729.053 125.171 Z M 401.514 57.202 L 399.829 56.177 L 399.829 57.202 L 401.514 57.202 Z M 476.147 57.202 L 474.463 56.177 L 474.463 57.202 L 476.147 57.202 Z" vector-effect="non-scaling-stroke"/></g></svg>